<?xml version="1.0" standalone="no"?>
<!DOCTYPE svg PUBLIC "-//W3C//DTD SVG 20010904//EN"
 "http://www.w3.org/TR/2001/REC-SVG-20010904/DTD/svg10.dtd">
<svg version="1.0" xmlns="http://www.w3.org/2000/svg"
 width="366.000000pt" height="138.000000pt" viewBox="0 0 366.000000 138.000000"
 preserveAspectRatio="xMidYMid meet">

<g transform="translate(0.000000,138.000000) scale(0.100000,-0.100000)"
fill="#000000" stroke="none">
<path d="M868 1274 c5 -11 20 -28 32 -39 13 -11 55 -59 95 -106 257 -301 313
-469 159 -469 -85 0 -298 71 -465 156 -39 19 -73 34 -74 32 -2 -2 44 -33 102
-68 146 -89 300 -205 319 -241 14 -28 14 -33 -1 -55 -50 -76 -267 -179 -697
-330 -92 -32 -165 -60 -163 -62 6 -6 293 78 445 130 381 132 611 262 672 381
66 131 -90 405 -358 627 -42 35 -72 55 -66 44z"/>
<path d="M2330 765 l0 -305 25 0 25 0 0 305 0 305 -25 0 -25 0 0 -305z"/>
<path d="M2590 1000 c0 -38 4 -70 9 -70 5 0 9 32 9 70 0 39 -4 70 -9 70 -5 0
-9 -31 -9 -70z"/>
<path d="M2868 1044 c-1 -9 -1 -39 0 -65 3 -38 8 -49 20 -48 11 0 12 2 5 6
-15 5 -18 80 -4 85 5 2 4 11 -4 21 -12 17 -14 17 -17 1z"/>
<path d="M2490 1020 c-23 -23 -26 -49 -7 -74 16 -21 68 -19 75 4 4 12 2 13 -9
3 -19 -19 -47 -16 -59 7 -10 19 -8 20 35 20 49 0 53 5 29 38 -19 27 -38 28
-64 2z m44 4 c30 -12 18 -34 -19 -34 -40 0 -41 2 -19 24 18 18 17 18 38 10z"/>
<path d="M2650 1020 c-38 -38 -16 -94 35 -88 16 1 30 9 33 16 3 11 0 11 -16 1
-23 -14 -52 -6 -52 16 0 11 11 15 40 15 44 0 47 5 24 38 -19 27 -38 28 -64 2z
m44 4 c28 -11 18 -34 -14 -34 -32 0 -37 9 -18 28 14 14 12 14 32 6z"/>
<path d="M2766 1024 c-16 -16 -21 -50 -10 -78 8 -22 58 -20 75 2 13 15 12 16
-3 4 -9 -8 -27 -12 -40 -10 -19 2 -23 9 -23 37 0 45 26 62 54 37 12 -11 21
-14 21 -8 0 12 -31 32 -49 32 -5 0 -17 -7 -25 -16z"/>
<path d="M2943 1032 c-20 -3 -23 -9 -23 -53 0 -27 5 -49 10 -49 6 0 10 18 10
40 0 27 5 42 17 49 22 12 15 18 -14 13z"/>
<path d="M2997 1022 c-34 -37 -13 -92 33 -92 47 0 68 61 32 93 -24 22 -45 21
-65 -1z m57 -8 c29 -29 13 -74 -26 -74 -16 0 -38 27 -38 49 0 12 28 41 40 41
5 0 16 -7 24 -16z"/>
<path d="M3123 1033 c-21 -4 -23 -10 -22 -56 l2 -52 7 43 c6 42 24 65 45 59 6
-2 11 -25 13 -50 4 -57 22 -63 22 -8 0 36 -21 73 -38 70 -4 -1 -17 -4 -29 -6z"/>
<path d="M3276 1024 c-19 -18 -21 -65 -4 -82 17 -17 65 -15 72 4 9 24 7 31 -5
12 -13 -22 -55 -23 -63 -2 -11 30 -6 53 15 64 16 9 25 8 40 -6 10 -9 19 -12
19 -6 0 12 -31 32 -49 32 -5 0 -17 -7 -25 -16z"/>
<path d="M3223 980 c0 -30 2 -43 4 -27 2 15 2 39 0 55 -2 15 -4 2 -4 -28z"/>
<path d="M1525 891 c-152 -68 -168 -341 -25 -419 97 -54 208 -30 268 58 29 43
28 60 -2 60 -17 0 -29 -9 -38 -27 -20 -41 -74 -73 -123 -73 -77 0 -145 70
-145 148 l0 32 171 0 171 0 -7 48 c-14 95 -45 143 -110 173 -51 24 -109 24
-160 0z m170 -63 c23 -22 38 -47 44 -75 l9 -43 -144 0 c-159 0 -157 -1 -130
63 7 18 28 45 45 60 27 22 42 27 87 27 47 0 59 -4 89 -32z"/>
<path d="M1922 718 c38 -101 76 -199 83 -218 10 -30 16 -35 44 -35 l33 0 60
155 c33 85 70 183 83 218 l24 62 -27 0 c-26 0 -30 -7 -96 -185 -38 -102 -72
-185 -75 -185 -3 0 -37 83 -75 185 -67 178 -70 185 -97 185 l-27 0 70 -182z"/>
<path d="M2963 765 c0 -44 2 -61 4 -37 2 23 2 59 0 80 -2 20 -4 1 -4 -43z"/>
<path d="M3005 830 c3 -5 8 -10 11 -10 2 0 4 5 4 10 0 6 -5 10 -11 10 -5 0 -7
-4 -4 -10z"/>
<path d="M3325 830 c3 -5 8 -10 11 -10 2 0 4 5 4 10 0 6 -5 10 -11 10 -5 0 -7
-4 -4 -10z"/>
<path d="M3269 815 c-7 -35 6 -118 19 -121 7 -1 8 0 2 3 -15 7 -13 93 3 93 8
0 9 3 1 8 -6 4 -13 14 -16 22 -4 11 -6 10 -9 -5z"/>
<path d="M2476 780 c4 -14 13 -41 21 -60 l15 -35 25 54 c13 29 22 56 19 58 -5
6 -36 -62 -37 -81 0 -6 -11 12 -25 39 -13 28 -21 39 -18 25z"/>
<path d="M2583 745 c0 -33 2 -45 4 -27 2 18 2 45 0 60 -2 15 -4 0 -4 -33z"/>
<path d="M2626 785 c-9 -25 -9 -25 29 -41 19 -8 35 -19 35 -24 0 -20 -31 -22
-50 -5 -11 10 -20 13 -20 8 0 -38 73 -43 78 -5 3 18 -3 25 -27 33 -17 6 -31
17 -31 25 0 17 31 18 49 2 11 -11 13 -10 9 2 -7 22 -64 25 -72 5z"/>
<path d="M2734 750 l1 -55 38 -1 37 -1 -2 56 c-1 49 -2 51 -5 14 -8 -80 -59
-85 -66 -6 -4 46 -4 45 -3 -7z"/>
<path d="M2850 786 c-8 -11 -9 -16 -1 -16 6 0 11 5 11 10 0 6 11 10 25 10 37
0 31 -28 -7 -38 -26 -6 -33 -14 -33 -33 0 -22 4 -24 47 -24 32 -1 44 2 38 10
-5 5 -10 28 -12 50 -3 35 -7 40 -29 43 -14 2 -31 -4 -39 -12z m60 -55 c0 -20
-32 -37 -50 -26 -17 10 -11 25 13 35 33 13 37 12 37 -9z"/>
<path d="M3013 745 c0 -33 2 -45 4 -27 2 18 2 45 0 60 -2 15 -4 0 -4 -33z"/>
<path d="M3078 793 l32 -4 -35 -43 c-19 -24 -35 -46 -35 -50 0 -3 21 -5 48 -5
l47 2 -39 6 -39 6 37 43 c20 24 36 46 36 48 0 2 -19 3 -42 2 -38 -1 -39 -2
-10 -5z"/>
<path d="M3160 786 c-8 -11 -9 -16 -1 -16 6 0 11 5 11 10 0 6 11 10 25 10 37
0 31 -28 -7 -38 -26 -6 -33 -14 -33 -33 0 -22 4 -24 47 -24 32 -1 44 2 38 10
-5 5 -10 28 -12 50 -3 35 -7 40 -29 43 -14 2 -31 -4 -39 -12z m60 -55 c0 -20
-32 -37 -50 -26 -17 10 -11 25 13 35 33 13 37 12 37 -9z"/>
<path d="M3333 745 c0 -33 2 -45 4 -27 2 18 2 45 0 60 -2 15 -4 0 -4 -33z"/>
<path d="M3370 781 c-14 -28 -13 -46 8 -71 40 -49 101 6 73 66 -14 31 -65 34
-81 5z m73 -13 c15 -23 -6 -68 -33 -68 -27 0 -44 43 -29 71 12 24 47 22 62 -3z"/>
<path d="M3480 741 c0 -63 17 -59 22 4 2 32 7 41 25 43 23 3 28 -6 36 -73 3
-20 4 -15 6 16 1 54 -12 69 -57 66 -32 -2 -32 -2 -32 -56z"/>
<path d="M2483 535 c0 -44 2 -61 4 -37 2 23 2 59 0 80 -2 20 -4 1 -4 -43z"/>
<path d="M2641 539 l-1 -75 40 -2 c35 -3 41 1 50 23 18 48 -32 108 -64 75 -8
-9 -6 -11 10 -6 28 8 46 -14 42 -51 -2 -22 -9 -29 -30 -31 -22 -3 -29 2 -34
22 -3 14 -4 28 -1 33 3 4 1 26 -3 48 -7 35 -8 30 -9 -36z"/>
<path d="M3065 581 c3 -5 2 -12 -3 -15 -11 -7 0 -99 13 -103 9 -3 10 24 6 115
-1 6 -6 12 -12 12 -5 0 -8 -4 -4 -9z"/>
<path d="M2538 559 c-10 -5 -18 -15 -18 -21 0 -6 9 -3 20 7 21 19 50 14 50
-10 0 -9 -9 -15 -22 -15 -33 0 -51 -14 -46 -36 3 -15 13 -19 53 -20 28 -1 44
0 38 3 -8 3 -13 22 -13 48 0 52 -22 68 -62 44z m50 -66 c-4 -22 -58 -31 -58
-10 0 20 10 27 37 27 18 0 24 -5 21 -17z"/>
<path d="M2778 559 c-21 -12 -24 -69 -6 -87 7 -7 21 -12 33 -12 30 0 45 19 45
57 0 44 -34 64 -72 42z m51 -13 c7 -8 11 -27 9 -43 -3 -24 -8 -28 -33 -28 -25
0 -30 4 -33 28 -4 30 12 57 33 57 7 0 18 -6 24 -14z"/>
<path d="M2905 561 c-3 -6 -11 -9 -16 -6 -5 4 -8 -16 -7 -47 1 -46 2 -48 5
-13 2 22 11 46 20 52 9 7 14 15 11 19 -3 3 -9 0 -13 -5z"/>
<path d="M2963 563 c-7 -2 -13 -12 -13 -21 0 -13 3 -12 14 4 12 15 18 17 33 8
26 -16 22 -29 -9 -32 -32 -4 -53 -26 -44 -47 4 -11 18 -15 48 -14 l43 2 -4 41
c-5 59 -25 77 -68 59z m55 -65 c-7 -19 -34 -32 -53 -24 -14 5 -15 9 -5 21 15
18 63 20 58 3z"/>
<path d="M3127 552 c-34 -37 -13 -92 33 -92 47 0 68 61 32 93 -24 22 -45 21
-65 -1z m57 -8 c19 -18 20 -28 6 -55 -19 -34 -70 -18 -70 22 0 18 25 49 40 49
5 0 16 -7 24 -16z"/>
<path d="M3248 563 c-14 -4 -18 -15 -17 -56 1 -56 4 -54 14 6 4 23 11 37 20
37 8 0 15 5 15 10 0 10 -3 11 -32 3z"/>
<path d="M3312 504 c21 -55 21 -57 3 -70 -15 -12 -16 -14 -3 -14 16 0 75 127
64 138 -3 2 -10 -8 -16 -24 -6 -16 -13 -36 -16 -44 -4 -10 -12 0 -22 28 -9 23
-20 42 -24 42 -4 0 2 -25 14 -56z"/>
</g>
</svg>
